<svg xmlns="http://www.w3.org/2000/svg" xmlns:xlink="http://www.w3.org/1999/xlink" viewBox="0 0 83.03 83"><path d="M59.1 32.35a30.992 30.992 0 0 0-1.32-8.93l-1.64-5.49a6.72 6.72 0 0 0-6.47-4.82H33.38a6.711 6.711 0 0 0-6.47 4.82l-1.65 5.48a31.1 31.1 0 0 0-1.31 8.94v19.96a17.575 17.575 0 1 0 35.15 0V32.35zM48.27 15.82c-.12 33.6-4.7 46.24-6.75 50.21-2.04-3.96-6.63-16.62-6.75-50.21h13.5zM26.65 52.31v-1.35h2.71v-2.7h-2.71v-2.7h2.71v-2.71h-2.71v-2.7h2.71v-2.71h-2.71v-2.7h2.71v-2.7h-2.7a28.6 28.6 0 0 1 1.19-7.85l1.64-5.48a4.023 4.023 0 0 1 2.58-2.68c.13 32.73 4.45 46.03 6.89 50.92a14.888 14.888 0 0 1-12.31-14.64zm17.44 14.64c2.43-4.89 6.75-18.19 6.89-50.92a4.051 4.051 0 0 1 2.57 2.68l1.64 5.48a28.228 28.228 0 0 1 1.19 7.85h-2.69v2.7h2.7v2.7h-2.7v2.71h2.7v2.7h-2.7v2.71h2.7v2.7h-2.7v2.7h2.7v1.35a14.879 14.879 0 0 1-12.3 14.64zM1.92 26.24l8.49-8.49a5.255 5.255 0 0 0 2.72.77c.06 0 .1-.01.15-.01l7.37 9.21 2.11-1.69-6.7-8.38a5.384 5.384 0 0 0 1.82-2l5.4 3.6 1.5-2.25-6.27-4.18a5.475 5.475 0 0 0-.73-2.44l8.48-8.48-1.91-1.91-8.48 8.48a5.378 5.378 0 0 0-7.38 7.37L.01 24.32zm11.21-15.83a2.705 2.705 0 1 1-2.7 2.7 2.7 2.7 0 0 1 2.7-2.7zm51.4 2.41L58.27 17l1.5 2.25 5.39-3.6a5.557 5.557 0 0 0 1.82 2l-6.7 8.38 2.11 1.69 7.37-9.21c.05 0 .1.01.15.01a5.318 5.318 0 0 0 2.73-.77l8.48 8.49 1.91-1.92-8.48-8.48a5.29 5.29 0 0 0 .77-2.73 5.382 5.382 0 0 0-8.14-4.64L58.7-.01 56.79 1.9l8.48 8.48a5.361 5.361 0 0 0-.74 2.44zm8.08.29a2.7 2.7 0 1 1-2.7-2.7 2.71 2.71 0 0 1 2.7 2.7zm8.51 43.66l-8.48 8.48a5.318 5.318 0 0 0-2.73-.77c-.05 0-.1.01-.15.01l-7.29-9.11-2.11 1.69 6.62 8.28a5.557 5.557 0 0 0-1.82 2l-6.47-4.31-1.5 2.25 7.34 4.89a5.361 5.361 0 0 0 .74 2.44l-8.48 8.48 1.91 1.91 8.48-8.48a5.382 5.382 0 0 0 8.14-4.64 5.29 5.29 0 0 0-.77-2.73l8.48-8.48zM69.91 72.59a2.705 2.705 0 1 1 2.7-2.7 2.7 2.7 0 0 1-2.7 2.7zm-51.4-2.41l7.34-4.89-1.5-2.25-6.47 4.31a5.384 5.384 0 0 0-1.82-2l6.63-8.28-2.11-1.69-7.3 9.11c-.05 0-.09-.01-.15-.01a5.255 5.255 0 0 0-2.72.77l-8.49-8.48-1.91 1.91 8.48 8.48a5.375 5.375 0 0 0 7.37 7.37l8.49 8.48 1.91-1.91-8.48-8.48a5.475 5.475 0 0 0 .73-2.44zm-8.08-.29a2.705 2.705 0 1 1 2.7 2.7 2.71 2.71 0 0 1-2.7-2.7z" fill="currentColor" fill-rule="evenodd"></path></svg>