<svg xmlns="http://www.w3.org/2000/svg" xmlns:xlink="http://www.w3.org/1999/xlink" viewBox="0 0 41 30"><path d="M38.051 0h-35.1A2.907 2.907 0 0 0 .002 2.86v24.28A2.907 2.907 0 0 0 2.951 30h35.1A2.907 2.907 0 0 0 41 27.14V2.86A2.907 2.907 0 0 0 38.051 0zm1.81 27.14a1.788 1.788 0 0 1-1.81 1.76h-35.1a1.788 1.788 0 0 1-1.81-1.76V2.86a1.788 1.788 0 0 1 1.81-1.76h35.1a1.788 1.788 0 0 1 1.81 1.76v24.28zM15.245 6.74a8.263 8.263 0 1 0 8.5 8.26 8.4 8.4 0 0 0-8.5-8.26zm0 15.41A7.153 7.153 0 1 1 22.608 15a7.268 7.268 0 0 1-7.363 7.15zM35.076 5.1h-4.462a.555.555 0 1 0 0 1.11h4.462a.555.555 0 1 0 0-1.11z" fill="currentColor" fill-rule="evenodd"></path></svg>