<svg xmlns="http://www.w3.org/2000/svg" xmlns:xlink="http://www.w3.org/1999/xlink" viewBox="0 0 43 43"><path d="M21.5 11.17a4.228 4.228 0 0 0-.69 8.4v22.74a.69.69 0 0 0 1.38 0V19.57a4.228 4.228 0 0 0-.69-8.4zm2.01 6.24a2.85 2.85 0 0 1-4.86-2.01 2.86 2.86 0 0 1 .84-2.01 2.843 2.843 0 0 1 4.02 4.02zM29.42 6.5a.694.694 0 0 0 0 .98 11.2 11.2 0 0 1 0 15.84.694.694 0 0 0 0 .98.677.677 0 0 0 .98 0 12.578 12.578 0 0 0 0-17.8.694.694 0 0 0-.98 0zm6.3-6.3a.694.694 0 0 0 0 .98 20.11 20.11 0 0 1 0 28.44.706.706 0 0 0 0 .99.694.694 0 0 0 .98 0A21.5 21.5 0 0 0 36.7.2a.694.694 0 0 0-.98 0zM13.58 6.5a.694.694 0 0 0-.98 0 12.578 12.578 0 0 0 0 17.8.693.693 0 0 0 .98-.98 11.2 11.2 0 0 1 0-15.84.694.694 0 0 0 0-.98zm-6.3 23.12a20.11 20.11 0 0 1 0-28.44A.693.693 0 0 0 6.3.2a21.5 21.5 0 0 0 0 30.41.694.694 0 0 0 .98 0 .706.706 0 0 0 0-.99z" fill="currentColor" fill-rule="evenodd"></path></svg>