<svg xmlns="http://www.w3.org/2000/svg" xmlns:xlink="http://www.w3.org/1999/xlink" viewBox="0 0 50 45"><path d="M7.3 37.65A25.021 25.021 0 1 0 42.68 2.26a.606.606 0 0 0-.85.12.615.615 0 0 0 0 .73A23.794 23.794 0 1 1 1.22 19.99 23.512 23.512 0 0 1 7.78 3.54l4.44 4.51a17.448 17.448 0 0 0 .43 24.24 17.431 17.431 0 0 0 24.68 0 17.44 17.44 0 0 0 .03-24.64l-.03-.03a.6.6 0 0 0-.85-.12.606.606 0 0 0-.12.85.345.345 0 0 0 .12.12 16.249 16.249 0 1 1-23.41.43l4.99 4.99a9.25 9.25 0 1 0 13.43-.48.608.608 0 0 0-.85-.13.629.629 0 0 0-.12.86l.12.12a8.022 8.022 0 1 1-11.73.49l4.8 4.81a.693.693 0 0 0 .43.18.513.513 0 0 0 .42-.18.592.592 0 0 0 0-.85L6.08.13a.6.6 0 0 0-.85.12.615.615 0 0 0 0 .73l1.64 1.7a25.133 25.133 0 0 0 .43 34.97z" fill="currentColor" fill-rule="evenodd"></path></svg>