<svg xmlns="http://www.w3.org/2000/svg" xmlns:xlink="http://www.w3.org/1999/xlink" viewBox="0 0 49 50"><path d="M33.5 29.51a17.659 17.659 0 0 0-.761-2.57l-.109-.22a20.117 20.117 0 0 0-1.2-2.4l-.109-.28-4.351.44a12.409 12.409 0 0 0-1.2-1.25l.6-4.38-.272-.16a19.644 19.644 0 0 0-2.339-1.31.184.184 0 0 0-.108-.06.112.112 0 0 1-.109-.05 14.892 14.892 0 0 0-2.5-.82l-.326-.11-2.828 3.44a10.117 10.117 0 0 0-1.741 0l-2.665-3.49-.326.05a15.035 15.035 0 0 0-2.5.71l-.217.11a20.18 20.18 0 0 0-2.393 1.2l-.272.17.435 4.37a12.43 12.43 0 0 0-1.251 1.2l-4.351-.6-.163.27a21.237 21.237 0 0 0-1.305 2.35 1.133 1.133 0 0 1-.054.11.117.117 0 0 1-.055.11 14.964 14.964 0 0 0-.816 2.51l-.108.33 3.372 2.79a9.293 9.293 0 0 0 0 1.75L0 36.39l.054.33a17.659 17.659 0 0 0 .762 2.57l.054.22a19.981 19.981 0 0 0 1.2 2.4l.163.27 4.351-.43a13.44 13.44 0 0 0 1.2 1.25l-.6 4.38.272.16a19.714 19.714 0 0 0 2.338 1.31c.055 0 .055.05.109.05a.1.1 0 0 1 .109.06 14.862 14.862 0 0 0 2.5.82l.326.11 2.774-3.39a8.428 8.428 0 0 0 1.74 0l2.665 3.5.326-.06a17.382 17.382 0 0 0 2.556-.76l.218-.11a20.18 20.18 0 0 0 2.393-1.2l.272-.17-.436-4.37a12.221 12.221 0 0 0 1.251-1.2l4.351.6.163-.27a21.252 21.252 0 0 0 1.306-2.35 1.133 1.133 0 0 1 .054-.11.1.1 0 0 1 .054-.11 15.082 15.082 0 0 0 .816-2.51l.109-.33-3.372-2.79a9.466 9.466 0 0 0 0-1.75l3.481-2.67zm-4.514 2.51v.27a9.259 9.259 0 0 1-.054 2.14l-.054.27 3.317 2.73a14.112 14.112 0 0 1-.707 2.02l-.054.11a1.125 1.125 0 0 1-.055.11 13.142 13.142 0 0 1-1.033 1.91l-4.242-.6-.218.22a13.535 13.535 0 0 1-1.522 1.48l-.109.22.435 4.26a12.466 12.466 0 0 1-1.9.93l-.272.11a12.218 12.218 0 0 1-2.066.6l-2.611-3.45h-.272a8.792 8.792 0 0 1-2.121-.05l-.272-.05-2.719 3.33a14.95 14.95 0 0 1-2.012-.71l-.218-.11a13.744 13.744 0 0 1-1.9-1.04l.6-4.26-.217-.22a12.963 12.963 0 0 1-1.469-1.53l-.163-.22-4.242.44a12.452 12.452 0 0 1-.925-1.91l-.108-.11a11.9 11.9 0 0 1-.6-2.08l3.427-2.62v-.28a9.188 9.188 0 0 1 .054-2.13l.055-.27-3.318-2.73a14.236 14.236 0 0 1 .707-2.02l.109-.22a13.142 13.142 0 0 1 1.033-1.91l4.242.6.218-.22a13.535 13.535 0 0 1 1.522-1.48l.218-.16-.435-4.26a12.5 12.5 0 0 1 1.9-.93l.218-.11a11.37 11.37 0 0 1 2.067-.6l2.61 3.44h.27a9.946 9.946 0 0 1 2.121.05l.272.06 2.719-3.33a12.58 12.58 0 0 1 2.012.71l.109.05c.055 0 .055.06.109.06a13.568 13.568 0 0 1 1.9 1.03l-.6 4.27.218.21a13.869 13.869 0 0 1 1.468 1.53l.163.22 4.242-.43a12.022 12.022 0 0 1 .925 1.91l.109.22a11.46 11.46 0 0 1 .6 2.07zm17.4-19.12l2.61-1.26v-.33a8.516 8.516 0 0 0-.16-1.74l-.06-.17c-.11-.55-.27-1.09-.43-1.69l-.11-.33-2.884-.27c-.163-.28-.326-.55-.489-.82l.924-2.74-.272-.21a8.91 8.91 0 0 0-1.359-1.15l-.055-.06-.054-.05a9.672 9.672 0 0 0-1.523-.87l-.326-.22-2.23 1.85a5.126 5.126 0 0 0-.924-.21L37.8 0h-.33a8.5 8.5 0 0 0-1.74.17l-.163.05c-.544.11-1.088.28-1.686.44L33.5.77l-.272 2.89c-.271.17-.543.33-.815.5l-2.72-.93-.217.27a12.669 12.669 0 0 0-1.142 1.37l-.109.11a9.727 9.727 0 0 0-.87 1.53l-.163.32 1.849 2.24a5.794 5.794 0 0 0-.218.93l-2.61 1.26v.33a8.75 8.75 0 0 0 .163 1.75l.054.16c.109.55.272 1.09.435 1.69l.109.33 2.882.27c.164.28.327.55.49.82l-.925 2.74.272.21a8.917 8.917 0 0 0 1.36 1.15l.054.06.055.05a10.552 10.552 0 0 0 1.523.88l.326.16 2.23-1.86a5.163 5.163 0 0 0 .924.22l1.251 2.62h.326a8.533 8.533 0 0 0 1.741-.16l.163-.06c.544-.11 1.088-.27 1.686-.43l.326-.11.272-2.9c.272-.16.544-.33.816-.49l2.719.93.218-.27a11.741 11.741 0 0 0 1.137-1.37l.11-.11a9.705 9.705 0 0 0 .87-1.53l.17-.33-1.85-2.24a2.028 2.028 0 0 0 .27-.87zm.33 3.33c-.22.38-.44.77-.66 1.09l-.05.11a6.66 6.66 0 0 1-.817.99l-2.61-.93-.218.16a6.037 6.037 0 0 1-1.142.71l-.272.17-.272 2.78c-.435.11-.816.22-1.2.33h-.155a8.156 8.156 0 0 1-1.251.11l-1.2-2.51h-.326a8.241 8.241 0 0 1-1.305-.28l-.272-.11-2.121 1.75c-.381-.22-.762-.43-1.088-.65l-.109-.06a6.5 6.5 0 0 1-.979-.82l.925-2.62-.163-.22a5.827 5.827 0 0 1-.707-1.15l-.218-.22-2.773-.27c-.109-.43-.218-.82-.327-1.25v-.11a9.18 9.18 0 0 1-.109-1.26l2.5-1.2.054-.28a8.256 8.256 0 0 1 .272-1.31l.109-.27-1.795-2.24c.218-.38.436-.77.653-1.09l.055-.11a6.518 6.518 0 0 1 .815-.99l2.611.93.217-.16a6.069 6.069 0 0 1 1.142-.71l.272-.11.272-2.79c.435-.11.816-.22 1.2-.32h.163a8.156 8.156 0 0 1 1.251-.11l1.2 2.51.272.05a8.241 8.241 0 0 1 1.305.28l.272.11 2.23-1.86c.381.22.761.43 1.088.65l.109.06a6.5 6.5 0 0 1 .979.82l-.925 2.62.163.22a5.827 5.827 0 0 1 .707 1.15l.163.27 2.771.27c.11.44.22.82.33 1.21v.16a9.69 9.69 0 0 1 .11 1.26l-2.5 1.2-.054.27a7.821 7.821 0 0 1-.272 1.31l-.109.28zM16.8 25.52a7.653 7.653 0 0 0-7.614 7.65h1.088a6.526 6.526 0 1 1 6.526 6.5 6.043 6.043 0 0 1-3.209-.87l2.883-.6-.218-1.1-4.623.93.871 4.65 1.087-.22-.544-2.73a7.463 7.463 0 0 0 3.753.98 7.6 7.6 0 1 0 0-15.19zM37.575 6.89a4.535 4.535 0 1 0 4.514 4.53 4.511 4.511 0 0 0-4.51-4.53zm0 8.03a3.44 3.44 0 1 1 3.427-3.44 3.42 3.42 0 0 1-3.423 3.44z" fill="currentColor" fill-rule="evenodd"></path></svg>