<svg xmlns="http://www.w3.org/2000/svg" width="480" height="479" viewBox="0 0 480 479"><path d="m476.609375 1.960938c-2.128906-1.496094-4.847656-1.867188-7.296875-.992188l-109.402344 39.074219-117.382812-39.128907c-1.640625-.550781-3.414063-.550781-5.054688 0l-117.382812 39.128907-109.402344-39.074219c-2.449219-.8710938-5.167969-.5-7.292969.996094s-3.39062475 3.933594-3.394531 6.53125v392c.00390625 3.382812 2.128906 6.394531 5.3125 7.53125l112 40h.113281c1.628907.578125 3.40625.597656 5.046875.046875h.054688l117.058594-39.015625 69.167968 30.742187c4.035156 1.792969 8.765625-.023437 10.558594-4.0625 1.792969-4.039062-.027344-8.765625-4.066406-10.558593l-72-32c-1.820313-.816407-3.882813-.914063-5.773438-.273438l-117.382812 39.136719-104.089844-37.144531v-375.046876l101.3125 36.175782c.316406.070312.640625.117187.96875.140625.523438.136719 1.058594.21875 1.597656.242187.578125-.003906 1.152344-.074218 1.714844-.207031.308594-.019531.613281-.0625.917969-.121094l117.488281-39.152343 117.472656 39.152343c.433594.113281.878906.1875 1.328125.214844.320313.078125.644531.132813.976563.160156.074218.019531.148437.03125.222656.039063.878906-.003906 1.753906-.160156 2.585938-.453125h.101562l101.3125-36.191407v375.199219l-74.976562 29.984375c-4.105469 1.640625-6.097657 6.300782-4.457032 10.40625 1.644532 4.105469 6.304688 6.101563 10.410156 4.457032l80-32c3.027344-1.214844 5.011719-4.140626 5.023438-7.402344v-392c0-2.597656-1.265625-5.035156-3.390625-6.535156zm0 0"></path><path d="m424 208.496094c0-39.761719-32.234375-72-72-72s-72 32.238281-72 72c0 39.765625 32.234375 72 72 72 39.746094-.042969 71.957031-32.253906 72-72zm-128 0c0-30.925782 25.070312-56 56-56s56 25.074218 56 56c0 30.929687-25.070312 56-56 56-30.914062-.035156-55.964844-25.085938-56-56zm0 0"></path><path d="m384 307.394531c48.699219-15.75 78.703125-64.59375 70.730469-115.152343-7.972657-50.558594-51.546875-87.804688-102.730469-87.804688s-94.757812 37.246094-102.730469 87.804688c-7.972656 50.558593 22.03125 99.402343 70.730469 115.152343v21.101563c0 4.421875 3.582031 8 8 8v120c0 13.257812 10.746094 24 24 24s24-10.742188 24-24v-120c4.417969 0 8-3.578125 8-8zm-16 3.878907v9.222656h-32v-9.222656c.617188.097656 1.238281.128906 1.855469.207031.800781.113281 1.601562.183593 2.402343.28125 3.792969.445312 7.609376.683593 11.429688.71875l.3125.015625h.3125c3.816406-.035156 7.632812-.273438 11.421875-.71875.800781-.085938 1.601563-.167969 2.402344-.28125.625-.09375 1.253906-.132813 1.863281-.222656zm-104-102.777344c0-36.609375 22.667969-69.394532 56.917969-82.324219 34.253906-12.929687 72.929687-3.304687 97.125 24.171875 24.195312 27.476562 28.851562 67.058594 11.691406 99.402344-17.15625 32.339844-52.546875 50.675781-88.863281 46.046875-3.667969-.457031-7.300782-1.15625-10.878906-2.085938-38.875-10-66.035157-45.070312-65.992188-85.210937zm96 248c0 4.421875-3.582031 8-8 8s-8-3.578125-8-8v-120h16zm0 0"></path><path d="m128 64.496094c0-4.417969-3.582031-8-8-8s-8 3.582031-8 8v16c0 4.421875 3.582031 8 8 8s8-3.578125 8-8zm0 0"></path><path d="m128 112.496094c0-4.417969-3.582031-8-8-8s-8 3.582031-8 8v16c0 4.421875 3.582031 8 8 8s8-3.578125 8-8zm0 0"></path><path d="m128 160.496094c0-4.417969-3.582031-8-8-8s-8 3.582031-8 8v16c0 4.421875 3.582031 8 8 8s8-3.578125 8-8zm0 0"></path><path d="m128 208.496094c0-4.417969-3.582031-8-8-8s-8 3.582031-8 8v16c0 4.421875 3.582031 8 8 8s8-3.578125 8-8zm0 0"></path><path d="m128 256.496094c0-4.417969-3.582031-8-8-8s-8 3.582031-8 8v16c0 4.421875 3.582031 8 8 8s8-3.578125 8-8zm0 0"></path><path d="m128 304.496094c0-4.417969-3.582031-8-8-8s-8 3.582031-8 8v16c0 4.421875 3.582031 8 8 8s8-3.578125 8-8zm0 0"></path><path d="m240 56.496094c4.417969 0 8-3.578125 8-8v-16c0-4.417969-3.582031-8-8-8s-8 3.582031-8 8v16c0 4.421875 3.582031 8 8 8zm0 0"></path><path d="m232 96.496094c0 4.421875 3.582031 8 8 8s8-3.578125 8-8v-16c0-4.417969-3.582031-8-8-8s-8 3.582031-8 8zm0 0"></path><path d="m368 88.496094v-16c0-4.417969-3.582031-8-8-8s-8 3.582031-8 8v16c0 4.421875 3.582031 8 8 8s8-3.578125 8-8zm0 0"></path><path d="m248 128.496094c0-4.417969-3.582031-8-8-8s-8 3.582031-8 8v16c0 4.421875 3.582031 8 8 8s8-3.578125 8-8zm0 0"></path><path d="m248 264.496094c0-4.417969-3.582031-8-8-8s-8 3.582031-8 8v16c0 4.421875 3.582031 8 8 8s8-3.578125 8-8zm0 0"></path><path d="m248 312.496094c0-4.417969-3.582031-8-8-8s-8 3.582031-8 8v16c0 4.421875 3.582031 8 8 8s8-3.578125 8-8zm0 0"></path><path d="m240 352.496094c-4.417969 0-8 3.582031-8 8v16c0 4.421875 3.582031 8 8 8s8-3.578125 8-8v-16c0-4.417969-3.582031-8-8-8zm0 0"></path><path d="m128 352.496094c0-4.417969-3.582031-8-8-8s-8 3.582031-8 8v16c0 4.421875 3.582031 8 8 8s8-3.578125 8-8zm0 0"></path><path d="m120 392.496094c-4.417969 0-8 3.582031-8 8v16c0 4.421875 3.582031 8 8 8s8-3.578125 8-8v-16c0-4.417969-3.582031-8-8-8zm0 0"></path></svg>