<svg xmlns="http://www.w3.org/2000/svg" xmlns:xlink="http://www.w3.org/1999/xlink" viewBox="0 0 475.41 404.63"><circle cx="425.789" cy="141.268" r="7.5"></circle><circle cx="425.789" cy="98.841" r="7.5"></circle><path d="M446.337 193.837c15.297-17.693 23.644-40.035 23.644-63.66 0-26.044-10.142-50.528-28.558-68.943-18.415-18.415-42.899-28.557-68.942-28.557-23.621 0-45.959 8.343-63.649 23.634l-2.008-1.978a7.5 7.5 0 0 0-10.606.079 7.5 7.5 0 0 0 .079 10.606l1.961 1.932c-15.061 17.623-23.276 39.792-23.276 63.226 0 3.017.142 6.011.411 8.979L67.264 371.771a7.5 7.5 0 0 0 .286 10.305l21.213 21.213-4.265 4.265c-15.878 15.88-41.716 15.879-57.596.001-15.879-15.88-15.879-41.718 0-57.597l140.865-140.865c21.728-21.729 21.728-57.082 0-78.811-21.728-21.727-57.082-21.727-78.809 0L2.177 217.063l10.606 10.607 86.781-86.781c15.88-15.878 41.718-15.879 57.596 0 15.879 15.879 15.879 41.717 0 57.596L16.296 339.351c-21.728 21.728-21.728 57.081 0 78.81C27.16 429.024 41.43 434.456 55.7 434.456s28.541-5.432 39.405-16.296l4.264-4.265 21.214 21.213a7.48 7.48 0 0 0 5.304 2.196 7.477 7.477 0 0 0 5-1.911L330.38 256.9l33.12-29.634a99.5 99.5 0 0 0 8.981.411c23.429 0 45.594-8.212 63.216-23.268l1.969 1.979a7.474 7.474 0 0 0 5.315 2.209 7.474 7.474 0 0 0 5.291-2.185 7.498 7.498 0 0 0 .024-10.606l-1.959-1.969zM126.173 419.484l-21.493-21.492-21.506-21.506 165.965-185.49c6.617 13.443 15.364 25.656 26.115 36.409 10.753 10.751 22.965 19.498 36.409 26.115l-185.49 165.964zm197.667-176.86c-14.177-6.118-26.939-14.786-37.98-25.826-11.041-11.042-19.709-23.804-25.827-37.98l18.878-21.099c4.534 15.484 12.9 29.674 24.627 41.402 11.727 11.727 25.916 20.092 41.4 24.626l-21.098 18.877zm48.641-29.947c-22.037-.001-42.754-8.582-58.336-24.164s-24.164-36.3-24.164-58.336c0-19.461 6.702-37.887 18.999-52.662l15.811 15.578a7.476 7.476 0 0 0 5.263 2.157 7.5 7.5 0 0 0 5.264-12.842L319.57 66.891c14.817-12.432 33.339-19.214 52.911-19.214 22.036 0 42.754 8.581 58.336 24.164 15.583 15.581 24.164 36.299 24.164 58.336 0 19.603-6.806 38.152-19.275 52.981l-79.123-79.485a7.496 7.496 0 0 0-10.606-.024 7.498 7.498 0 0 0-.024 10.606l79.121 79.483c-14.764 12.259-33.163 18.939-52.593 18.939z"></path></svg>