<svg xmlns="http://www.w3.org/2000/svg" xmlns:xlink="http://www.w3.org/1999/xlink" viewBox="0 0 73.3 80.1"><path d="M58.1 19.6c5.4 0 9.8-4.4 9.8-9.8S63.5 0 58.1 0s-9.8 4.4-9.8 9.8 4.3 9.8 9.8 9.8zm0-16.6c3.7 0 6.8 3.1 6.8 6.8s-3 6.8-6.8 6.8-6.8-3-6.8-6.8 3-6.8 6.8-6.8zM15.5 19.6c5.4 0 9.8-4.4 9.8-9.8S20.9 0 15.5 0 5.7 4.4 5.7 9.8s4.4 9.8 9.8 9.8zm0-16.6c3.7 0 6.8 3.1 6.8 6.8s-3 6.8-6.8 6.8-6.8-3-6.8-6.8S11.8 3 15.5 3zM5.3 58.3v15.6c0 3.4 2.8 6.2 6.2 6.2h8c3.4 0 6.2-2.8 6.2-6.2V41.6l3.5 3.1c1.9 1.7 4.3 2.6 6.8 2.6h1.2c2.5 0 5-.9 6.9-2.6l3.5-3.1v32.3c0 3.4 2.8 6.2 6.2 6.2h8c3.4 0 6.2-2.8 6.2-6.2V58.3c3-.5 5.3-3.1 5.3-6.2V35.3c0-6.5-5.3-11.7-11.7-11.7h-6.9c-4 0-7.9 1.6-10.7 4.4l-7.4 7.4-7.2-7.4c-2.9-2.9-6.7-4.4-10.7-4.4h-6.9C5.3 23.6 0 28.8 0 35.3v16.8c0 3.1 2.3 5.7 5.3 6.2zm41-28.2c2.3-2.3 5.4-3.6 8.6-3.6h6.9c4.8 0 8.7 3.9 8.7 8.7V52c0 1.8-1.5 3.2-3.2 3.2h-2v18.5c0 1.8-1.5 3.2-3.2 3.2h-8c-1.8 0-3.2-1.5-3.2-3.2V35l-7.7 6.8-4.2-4.2 7.3-7.5zM3 35.3c0-4.8 3.9-8.7 8.7-8.7h6.9c3.2 0 6.3 1.3 8.6 3.6l12.9 12.9c-1.2.8-2.6 1.2-4.1 1.2-1.8 0-3.5-.6-4.9-1.8L22.8 35v38.9c0 1.8-1.5 3.2-3.2 3.2h-8c-1.8 0-3.2-1.5-3.2-3.2V55.4h-2c-1.8 0-3.2-1.5-3.2-3.2L3 35.3z"></path></svg>