<svg xmlns="http://www.w3.org/2000/svg" xmlns:xlink="http://www.w3.org/1999/xlink" viewBox="0 0 68.4 66"><path d="M44.1 43.1H21.9c-.6 0-1-.4-1-1V21.9c0-.6.4-1 1-1h22.2c.6 0 1 .4 1 1v20.2c0 .6-.5 1-1 1zm-21.2-2h20.2V22.9H22.9v18.2z"></path><path d="M44.1 22.9c-.3 0-.5-.1-.7-.3-.4-.4-.4-1 0-1.4l7.8-7.8c.4-.4 1-.4 1.4 0 .4.4.4 1 0 1.4l-7.8 7.8c-.2.2-.5.3-.7.3z"></path><path d="M54.3 23.5c-3 0-6-1.1-8.3-3.4-2.2-2.2-3.4-5.2-3.4-8.3 0-3.1 1.2-6.1 3.4-8.3C48.2 1.2 51.1 0 54.3 0s6.1 1.2 8.3 3.4c4.6 4.6 4.6 12 0 16.6-2.3 2.3-5.3 3.5-8.3 3.5zm0-21.5c-2.5 0-5 .9-6.9 2.8-1.8 1.8-2.9 4.3-2.9 6.9 0 2.6 1 5 2.9 6.9 3.8 3.8 10 3.8 13.8 0 3.8-3.8 3.8-10 0-13.8C59.2 3 56.7 2 54.3 2z"></path><path d="M54.3 16.1c-1.2 0-2.2-.4-3.1-1.3-1.7-1.7-1.7-4.4 0-6.1.8-.8 1.9-1.3 3.1-1.3s2.2.4 3.1 1.3c.8.8 1.3 1.9 1.3 3.1 0 1.2-.4 2.2-1.3 3.1-.9.7-2 1.2-3.1 1.2zm0-6.7c-.6 0-1.2.2-1.6.7-.9.9-.9 2.4 0 3.3.9.9 2.4.9 3.3 0 .4-.4.7-1 .7-1.6 0-.6-.2-1.2-.7-1.6-.5-.5-1.1-.8-1.7-.8z"></path><path d="M61.8 20.3c-.3 0-.5-.1-.7-.3l-5.2-5.2c-.4-.4-.4-1 0-1.4s1-.4 1.4 0l5.2 5.2c.4.4.4 1 0 1.4-.1.2-.4.3-.7.3zm-9.9-9.9c-.3 0-.5-.1-.7-.3L46 4.9c-.4-.4-.4-1 0-1.4.4-.4 1-.4 1.4 0l5.2 5.2c.4.4.4 1 0 1.4-.2.2-.4.3-.7.3zm0 42.5c-.3 0-.6-.1-.8-.4l-7.8-9.8c-.3-.4-.3-1.1.2-1.4.4-.3 1.1-.3 1.4.2l7.8 9.8c.3.4.3 1.1-.2 1.4-.2.1-.4.2-.6.2z"></path><path d="M54.3 66c-3 0-6-1.1-8.3-3.4-2.2-2.2-3.4-5.2-3.4-8.3 0-3.1 1.2-6.1 3.4-8.3s5.2-3.4 8.3-3.4 6.1 1.2 8.3 3.4c4.6 4.6 4.6 12 0 16.6-2.3 2.3-5.3 3.4-8.3 3.4zm0-21.5c-2.6 0-5 1-6.9 2.9s-2.9 4.3-2.9 6.9c0 2.6 1 5 2.9 6.9 3.8 3.8 10 3.8 13.8 0 3.8-3.8 3.8-10 0-13.8-1.9-1.9-4.3-2.9-6.9-2.9zm7.5 17.4z"></path><path d="M54.3 58.6c-1.2 0-2.2-.4-3.1-1.3-1.7-1.7-1.7-4.4 0-6.1.8-.8 1.9-1.3 3.1-1.3s2.2.4 3.1 1.3c.8.8 1.3 1.9 1.3 3.1s-.4 2.2-1.3 3.1c-.9.7-2 1.2-3.1 1.2zm0-6.7c-.6 0-1.2.2-1.6.7-.9.9-.9 2.4 0 3.3.9.9 2.4.9 3.3 0 .4-.4.7-1 .7-1.6 0-.6-.2-1.2-.7-1.6-.5-.5-1.1-.8-1.7-.8z"></path><path d="M56.6 52.9c-.3 0-.5-.1-.7-.3-.4-.4-.4-1 0-1.4l5.2-5.2c.4-.4 1-.4 1.4 0s.4 1 0 1.4l-5.2 5.2c-.2.2-.4.3-.7.3zm-9.9 10c-.3 0-.5-.1-.7-.3-.4-.4-.4-1 0-1.4l5.2-5.2c.4-.4 1-.4 1.4 0 .4.4.4 1 0 1.4l-5.2 5.2c-.2.2-.5.3-.7.3zm-2.6-40c-.3 0-.5-.1-.7-.3-.4-.4-.4-1 0-1.4l7.8-7.8c.4-.4 1-.4 1.4 0 .4.4.4 1 0 1.4l-7.8 7.8c-.2.2-.5.3-.7.3z"></path><path d="M54.3 23.5c-3 0-6-1.1-8.3-3.4-2.2-2.2-3.4-5.2-3.4-8.3 0-3.1 1.2-6.1 3.4-8.3C48.2 1.2 51.1 0 54.3 0s6.1 1.2 8.3 3.4c4.6 4.6 4.6 12 0 16.6-2.3 2.3-5.3 3.5-8.3 3.5zm0-21.5c-2.5 0-5 .9-6.9 2.8-1.8 1.8-2.9 4.3-2.9 6.9 0 2.6 1 5 2.9 6.9 3.8 3.8 10 3.8 13.8 0 3.8-3.8 3.8-10 0-13.8C59.2 3 56.7 2 54.3 2z"></path><path d="M54.3 16.1c-1.2 0-2.2-.4-3.1-1.3-1.7-1.7-1.7-4.4 0-6.1.8-.8 1.9-1.3 3.1-1.3s2.2.4 3.1 1.3c.8.8 1.3 1.9 1.3 3.1 0 1.2-.4 2.2-1.3 3.1-.9.7-2 1.2-3.1 1.2zm0-6.7c-.6 0-1.2.2-1.6.7-.9.9-.9 2.4 0 3.3.9.9 2.4.9 3.3 0 .4-.4.7-1 .7-1.6 0-.6-.2-1.2-.7-1.6-.5-.5-1.1-.8-1.7-.8z"></path><path d="M61.8 20.3c-.3 0-.5-.1-.7-.3l-5.2-5.2c-.4-.4-.4-1 0-1.4s1-.4 1.4 0l5.2 5.2c.4.4.4 1 0 1.4-.1.2-.4.3-.7.3zm-9.9-9.9c-.3 0-.5-.1-.7-.3L46 4.9c-.4-.4-.4-1 0-1.4.4-.4 1-.4 1.4 0l5.2 5.2c.4.4.4 1 0 1.4-.2.2-.4.3-.7.3zm0 42.5c-.3 0-.6-.1-.8-.4l-7.8-9.8c-.3-.4-.3-1.1.2-1.4.4-.3 1.1-.3 1.4.2l7.8 9.8c.3.4.3 1.1-.2 1.4-.2.1-.4.2-.6.2z"></path><path d="M54.3 66c-3 0-6-1.1-8.3-3.4-2.2-2.2-3.4-5.2-3.4-8.3 0-3.1 1.2-6.1 3.4-8.3s5.2-3.4 8.3-3.4 6.1 1.2 8.3 3.4c4.6 4.6 4.6 12 0 16.6-2.3 2.3-5.3 3.4-8.3 3.4zm0-21.5c-2.6 0-5 1-6.9 2.9s-2.9 4.3-2.9 6.9c0 2.6 1 5 2.9 6.9 3.8 3.8 10 3.8 13.8 0 3.8-3.8 3.8-10 0-13.8-1.9-1.9-4.3-2.9-6.9-2.9zm7.5 17.4z"></path><path d="M54.3 58.6c-1.2 0-2.2-.4-3.1-1.3-1.7-1.7-1.7-4.4 0-6.1.8-.8 1.9-1.3 3.1-1.3s2.2.4 3.1 1.3c.8.8 1.3 1.9 1.3 3.1s-.4 2.2-1.3 3.1c-.9.7-2 1.2-3.1 1.2zm0-6.7c-.6 0-1.2.2-1.6.7-.9.9-.9 2.4 0 3.3.9.9 2.4.9 3.3 0 .4-.4.7-1 .7-1.6 0-.6-.2-1.2-.7-1.6-.5-.5-1.1-.8-1.7-.8z"></path><path d="M56.6 52.9c-.3 0-.5-.1-.7-.3-.4-.4-.4-1 0-1.4l5.2-5.2c.4-.4 1-.4 1.4 0s.4 1 0 1.4l-5.2 5.2c-.2.2-.4.3-.7.3zm-9.9 10c-.3 0-.5-.1-.7-.3-.4-.4-.4-1 0-1.4l5.2-5.2c.4-.4 1-.4 1.4 0 .4.4.4 1 0 1.4l-5.2 5.2c-.2.2-.5.3-.7.3zm-24.8-40c-.3 0-.5-.1-.7-.3l-7.8-7.8c-.4-.4-.4-1 0-1.4s1-.4 1.4 0l7.8 7.8c.4.4.4 1 0 1.4-.2.2-.4.3-.7.3z"></path><path d="M11.7 23.5c-3 0-6-1.1-8.3-3.4-4.6-4.6-4.6-12 0-16.6C5.7 1.2 8.6 0 11.7 0s6.1 1.2 8.3 3.4c4.6 4.6 4.6 12 0 16.6-2.3 2.3-5.3 3.5-8.3 3.5zM4.8 4.9C1 8.7 1 14.8 4.8 18.6c3.8 3.8 10 3.8 13.8 0 3.8-3.8 3.8-10 0-13.8-3.8-3.7-10-3.7-13.8.1z"></path><path d="M11.7 16.1c-1.2 0-2.2-.4-3.1-1.3-.8-.8-1.3-1.9-1.3-3.1 0-1.2.4-2.2 1.3-3.1.8-.8 1.9-1.3 3.1-1.3s2.2.4 3.1 1.3c.8.8 1.3 1.9 1.3 3.1s-.4 2.2-1.3 3.1c-.8.8-1.9 1.3-3.1 1.3zm0-6.7c-.6 0-1.2.2-1.6.7-.4.4-.7 1-.7 1.6 0 .6.2 1.2.7 1.6.9.9 2.4.9 3.3 0 .4-.4.7-1 .7-1.6 0-.6-.2-1.2-.7-1.6-.5-.4-1-.7-1.7-.7zm-2.3 0z"></path><path d="M4.1 20.3c-.3 0-.5-.1-.7-.3-.4-.4-.4-1 0-1.4l5.2-5.2c.4-.4 1-.4 1.4 0s.4 1 0 1.4L4.8 20c-.1.2-.4.3-.7.3zm10-9.9c-.3 0-.5-.1-.7-.3-.4-.4-.4-1 0-1.4l5.2-5.2c.4-.5 1-.5 1.4-.1s.4 1 0 1.4L14.8 10c-.2.3-.5.4-.7.4zm0 42.5c-.2 0-.4-.1-.6-.2-.4-.3-.5-1-.2-1.4l7.8-9.8c.3-.4 1-.5 1.4-.2.4.3.5 1 .2 1.4l-7.8 9.8c-.2.3-.5.4-.8.4z"></path><path d="M11.7 66c-3 0-6-1.1-8.3-3.4-4.6-4.6-4.6-12 0-16.6 2.2-2.2 5.2-3.4 8.3-3.4 3.1 0 6.1 1.2 8.3 3.4 4.6 4.6 4.6 12 0 16.6-2.3 2.3-5.3 3.4-8.3 3.4zm-6.9-4.9c3.8 3.8 10 3.8 13.8 0 3.8-3.8 3.8-10 0-13.8-1.8-1.8-4.3-2.9-6.9-2.9s-5 1-6.9 2.9c-3.8 3.9-3.8 10 0 13.8z"></path><path d="M11.7 58.6c-1.2 0-2.2-.4-3.1-1.3-.8-.8-1.3-1.9-1.3-3.1s.4-2.2 1.3-3.1c.8-.8 1.9-1.3 3.1-1.3s2.2.4 3.1 1.3c.8.8 1.3 1.9 1.3 3.1s-.4 2.2-1.3 3.1c-.8.8-1.9 1.3-3.1 1.3zm0-6.7c-.6 0-1.2.2-1.6.7s-.7 1-.7 1.6c0 .6.2 1.2.7 1.6.9.9 2.4.9 3.3 0 .4-.4.7-1 .7-1.6 0-.6-.2-1.2-.7-1.6-.5-.4-1-.7-1.7-.7z"></path><path d="M9.4 52.9c-.3 0-.5-.1-.7-.3l-5.2-5.2C3 47 3 46.3 3.4 46s1-.4 1.4 0l5.2 5.2c.4.4.4 1 0 1.4-.1.2-.4.3-.6.3zm9.9 10c-.3 0-.5-.1-.7-.3l-5.2-5.2c-.4-.4-.4-1 0-1.4s1-.4 1.4 0l5.2 5.2c.4.4.4 1 0 1.4-.2.2-.4.3-.7.3zM33 36.5c-2.5 0-4.5-2-4.5-4.5s2-4.5 4.5-4.5 4.5 2 4.5 4.5-2 4.5-4.5 4.5zm0-7c-1.4 0-2.5 1.1-2.5 2.5s1.1 2.5 2.5 2.5 2.5-1.1 2.5-2.5-1.1-2.5-2.5-2.5z"></path></svg>