<svg xmlns="http://www.w3.org/2000/svg" xmlns:xlink="http://www.w3.org/1999/xlink" viewBox="0 0 90 65"><path d="M87.5 0h-65C21.1 0 20 1.1 20 2.5S21.1 5 22.5 5h65C88.9 5 90 3.9 90 2.5S88.9 0 87.5 0zm-65 15h45c1.4 0 2.5-1.1 2.5-2.5S68.9 10 67.5 10h-45c-1.4 0-2.5 1.1-2.5 2.5s1.1 2.5 2.5 2.5zm65 10h-65c-1.4 0-2.5 1.1-2.5 2.5s1.1 2.5 2.5 2.5h65c1.4 0 2.5-1.1 2.5-2.5S88.9 25 87.5 25zm-65 15h55c1.4 0 2.5-1.1 2.5-2.5S78.9 35 77.5 35h-55c-1.4 0-2.5 1.1-2.5 2.5s1.1 2.5 2.5 2.5zm65 10h-65c-1.4 0-2.5 1.1-2.5 2.5s1.1 2.5 2.5 2.5h65c1.4 0 2.5-1.1 2.5-2.5S88.9 50 87.5 50zm-20 15c1.4 0 2.5-1.1 2.5-2.5S68.9 60 67.5 60h-45c-1.4 0-2.5 1.1-2.5 2.5s1.1 2.5 2.5 2.5h45zm-60-50c4.1 0 7.5-3.4 7.5-7.5S11.6 0 7.5 0 0 3.4 0 7.5 3.4 15 7.5 15zm0-10C8.9 5 10 6.1 10 7.5S8.9 10 7.5 10 5 8.9 5 7.5 6.1 5 7.5 5zm0 35c4.1 0 7.5-3.4 7.5-7.5S11.6 25 7.5 25 0 28.4 0 32.5 3.4 40 7.5 40zm0-10c1.4 0 2.5 1.1 2.5 2.5S8.9 35 7.5 35 5 33.9 5 32.5 6.1 30 7.5 30zm0 35c4.1 0 7.5-3.4 7.5-7.5S11.6 50 7.5 50 0 53.4 0 57.5 3.4 65 7.5 65zm0-10c1.4 0 2.5 1.1 2.5 2.5S8.9 60 7.5 60 5 58.9 5 57.5 6.1 55 7.5 55z"></path></svg>