<svg xmlns="http://www.w3.org/2000/svg" xmlns:xlink="http://www.w3.org/1999/xlink" viewBox="0 0 66 66"><path d="M47.4 66H19.6c-2 0-3.7-1.7-3.7-3.8V37.9c0-2.1 1.7-3.8 3.7-3.8h27.9c2 0 3.7 1.7 3.7 3.8v24.3c-.1 2.1-1.7 3.8-3.8 3.8zM19.6 36.1c-.9 0-1.7.8-1.7 1.8v24.3c0 1 .8 1.8 1.7 1.8h27.9c.9 0 1.7-.8 1.7-1.8V37.9c0-1-.8-1.8-1.7-1.8H19.6z"></path><path d="M40.7 46.9H26.4c-.6 0-1-.4-1-1V35.1c0-.6.4-1 1-1h14.3c.6 0 1 .4 1 1v10.8c0 .5-.5 1-1 1zm-13.3-2h12.3v-8.8H27.4v8.8zm15.8-21.8h-20c-3.3 0-5.9-2.7-5.9-6.1v-4.2c0-.6.4-1 1-1H48c.6 0 1 .4 1 1V17c.1 3.3-2.6 6.1-5.8 6.1zm-23.9-9.3V17c0 2.2 1.7 4.1 3.9 4.1h19.9c2.1 0 3.9-1.8 3.9-4.1v-3.2H19.3z"></path><path d="M65 16.8H48.1c-.6 0-1-.4-1-1s.4-1 1-1H65c.6 0 1 .4 1 1s-.4 1-1 1zm-46.7 0H1c-.6 0-1-.4-1-1s.4-1 1-1h17.3c.6 0 1 .4 1 1s-.4 1-1 1zm27.2-3H20.9c-.6 0-1-.4-1-1C19.9 9 23 6 26.8 6h12.8c3.8 0 6.9 3.1 6.9 6.9 0 .5-.5.9-1 .9zm-23.5-2h22.4C43.9 9.6 42 8 39.6 8H26.8c-2.4 0-4.3 1.6-4.8 3.8z"></path><path d="M13 16.8H6.6c-.6 0-1-.4-1-1v-4.1c0-.6.4-1 1-1H13c.6 0 1 .4 1 1v4.1c0 .5-.4 1-1 1zm-5.4-2H12v-2.1H7.6v2.1z"></path><path d="M9.8 12.7c-.6 0-1-.4-1-1V1c0-.6.4-1 1-1s1 .4 1 1v10.7c0 .5-.4 1-1 1z"></path><path d="M18.7 3.8H1c-.6 0-1-.4-1-1s.4-1 1-1h17.7c.6 0 1 .4 1 1s-.5 1-1 1zm40.7 13H53c-.6 0-1-.4-1-1v-4.1c0-.6.4-1 1-1h6.4c.6 0 1 .4 1 1v4.1c0 .5-.5 1-1 1zm-5.4-2h4.4v-2.1H54v2.1z"></path><path d="M56.2 12.7c-.6 0-1-.4-1-1V1c0-.6.4-1 1-1s1 .4 1 1v10.7c0 .5-.5 1-1 1z"></path><path d="M65 3.8H47.3c-.6 0-1-.4-1-1s.4-1 1-1H65c.6 0 1 .4 1 1s-.4 1-1 1zm-8.2 52.1c-.6 0-1-.4-1-1V46l-9-26.7c-.2-.5.1-1.1.6-1.3.5-.2 1.1.1 1.3.6l9 26.9c0 .1.1.2.1.3v9c0 .6-.4 1.1-1 1.1zM9.9 55.9c-.6 0-1-.4-1-1v-9c0-.1 0-.2.1-.3l8.9-26.7c.2-.5.7-.8 1.3-.6.5.2.8.7.6 1.3L10.9 46v8.8c0 .6-.4 1.1-1 1.1zM43.9 61.4H23.1c-.6 0-1-.4-1-1v-9.6c0-.6.4-1 1-1h20.7c.6 0 1 .4 1 1v9.6c.1.6-.4 1-.9 1zm-19.8-2h18.7v-7.6H24.1v7.6z"></path><path d="M56.8 46.9h-6.7c-.6 0-1-.4-1-1s.4-1 1-1h6.7c.6 0 1 .4 1 1s-.4 1-1 1zM16.9 46.9h-7c-.6 0-1-.4-1-1s.4-1 1-1h7c.6 0 1 .4 1 1s-.5 1-1 1z"></path></svg>