<svg xmlns="http://www.w3.org/2000/svg" xmlns:xlink="http://www.w3.org/1999/xlink" viewBox="0 0 59.97 62.03"><path d="M20.74 10.58V8.71l18.48-.02v1.87zM8.9 19.29a10.021 10.021 0 0 1-8.81-5.36.942.942 0 0 1 .03-.92.9.9 0 0 1 .78-.45h7l1.43-2.94L7.9 6.68l-7 .01a.888.888 0 0 1-.78-.46.942.942 0 0 1-.03-.92 10.033 10.033 0 0 1 17.42-.46c5.68.01 9.18 0 12.76-.01l12.13-.01A9.294 9.294 0 0 1 52.72.25a9.7 9.7 0 0 1 0 18.77 9.281 9.281 0 0 1-10.32-4.57H17.49a9.806 9.806 0 0 1-8.59 4.84zm-6.29-4.86a8.186 8.186 0 0 0 6.3 2.99h.02a8.136 8.136 0 0 0 7.22-4.34.91.91 0 0 1 .81-.5h25.98a.9.9 0 0 1 .82.52 7.5 7.5 0 0 0 8.54 4.1 7.813 7.813 0 0 0 0-15.13 7.514 7.514 0 0 0-8.54 4.11.9.9 0 0 1-.82.52l-25.97.02a.929.929 0 0 1-.81-.5 8.011 8.011 0 0 0-7.21-4.33 8.156 8.156 0 0 0-6.34 2.93h5.85a.923.923 0 0 1 .82.51l1.89 3.87a.953.953 0 0 1 0 .84l-1.89 3.87a.915.915 0 0 1-.82.52H2.61zm45.59.5a.906.906 0 0 1-.8-.48l-2.36-4.35a.976.976 0 0 1 0-.91l2.36-4.36a.926.926 0 0 1 .8-.48h4.73a.926.926 0 0 1 .8.48l2.36 4.36a.956.956 0 0 1 0 .9l-2.37 4.36a.91.91 0 0 1-.79.48H48.2zm-1.32-5.29l1.86 3.42h3.65l1.86-3.42-1.86-3.42h-3.65zm-12 37.22a.986.986 0 0 1-.71-.31 1.045 1.045 0 0 1 0-1.45 6.212 6.212 0 0 0 1.27-1.91.994.994 0 0 1 1.31-.54 1.036 1.036 0 0 1 .53 1.35 7.823 7.823 0 0 1-.73 1.37 8.411 8.411 0 0 1-.97 1.19.97.97 0 0 1-.7.3zm-3.5 1.91a1 1 0 0 1-.98-.82 1.022 1.022 0 0 1 .78-1.21 6.218 6.218 0 0 0 1.11-.35.985.985 0 0 1 1.31.55 1.025 1.025 0 0 1-.53 1.34 8.6 8.6 0 0 1-1.49.47 1.5 1.5 0 0 1-.2.02zm-2.79 0a1.5 1.5 0 0 1-.2-.02 7.356 7.356 0 0 1-1.49-.47 7.606 7.606 0 0 1-1.34-.74 1.057 1.057 0 0 1-.28-1.43 1 1 0 0 1 1.4-.28 5.446 5.446 0 0 0 1 .56 6.218 6.218 0 0 0 1.11.35 1.022 1.022 0 0 1 .78 1.21 1 1 0 0 1-.98.82zm-4.34-2.96a.987.987 0 0 1-.83-.44 7.866 7.866 0 0 1-.73-1.37 1.033 1.033 0 0 1 .53-1.35.988.988 0 0 1 1.31.54 5.916 5.916 0 0 0 .55 1.02 1.047 1.047 0 0 1-.27 1.43.969.969 0 0 1-.56.17zm7.46 16.21h-3.46a1 1 0 0 1-.97-.78l-.76-3.11a18.607 18.607 0 0 1-2.07-.56l-2.2 2.31a.974.974 0 0 1-1.21.17l-3-1.75a1.039 1.039 0 0 1-.46-1.18l.86-3.07a18.169 18.169 0 0 1-1.51-1.53l-3.03.88a1 1 0 0 1-1.14-.47l-1.73-3.04a1.03 1.03 0 0 1 .17-1.26l2.26-2.22a17.4 17.4 0 0 1-.55-2.09l-3.06-.78.48-1.99 3.69.93a1.022 1.022 0 0 1 .74.83 16.282 16.282 0 0 0 .8 3.01 1.057 1.057 0 0 1-.24 1.11l-2.16 2.12.94 1.66 2.9-.85a.983.983 0 0 1 1.05.34 16.114 16.114 0 0 0 2.17 2.2 1.049 1.049 0 0 1 .33 1.08l-.83 2.94 1.64.96 2.11-2.21a.978.978 0 0 1 1.06-.25 15.27 15.27 0 0 0 2.96.81 1 1 0 0 1 .82.76l.73 2.98h1.89l.73-2.97a1 1 0 0 1 .81-.76 15.173 15.173 0 0 0 2.97-.81 1.011 1.011 0 0 1 1.08.24l2.09 2.21 1.64-.96-.83-2.94a1.049 1.049 0 0 1 .33-1.08 16.114 16.114 0 0 0 2.17-2.2.983.983 0 0 1 1.05-.34l2.9.85.94-1.66-2.16-2.13a1.044 1.044 0 0 1-.25-1.1 15.6 15.6 0 0 0 .79-3 1.007 1.007 0 0 1 .75-.83l3.7-.94.48 1.99-3.07.78a16.766 16.766 0 0 1-.55 2.08l2.27 2.23a1.03 1.03 0 0 1 .17 1.26l-1.73 3.04a.991.991 0 0 1-1.14.47l-3.03-.88a18.169 18.169 0 0 1-1.51 1.53l.86 3.07a1.039 1.039 0 0 1-.46 1.18l-3 1.75a.974.974 0 0 1-1.21-.17l-2.19-2.3a16.81 16.81 0 0 1-2.08.56l-.76 3.1a1.022 1.022 0 0 1-.98.78zm-1.72-9.66a11.435 11.435 0 0 1-10.97-8.48 1.025 1.025 0 0 1 .69-1.26 1 1 0 0 1 1.24.71 9.42 9.42 0 0 0 9.04 6.97H30a9.416 9.416 0 0 0 9.03-7 1 1 0 0 1 1.23-.71 1.026 1.026 0 0 1 .7 1.26A11.453 11.453 0 0 1 30 52.36h-.01zm29.3-18.77h-7.06a2.367 2.367 0 0 1-2.34-2.39v-.97a2.365 2.365 0 0 1 2.34-2.38h7.06v5.74zm-7.06-3.88a.521.521 0 0 0-.51.52v.97a.514.514 0 0 0 .51.52h5.24v-2.01h-5.24zm-1.42 1.94H31.4v-1.87h19.41v1.87zm-23.66 2.18H3.49a2.845 2.845 0 0 1-2.81-2.87v-.48a2.847 2.847 0 0 1 2.81-2.88h23.66a.935.935 0 0 1 0 1.87H3.49a1 1 0 0 0-.99 1.01v.48a.994.994 0 0 0 .99 1h23.66a.935.935 0 0 1 0 1.87zm.47 3.87H7.74a5.748 5.748 0 0 1-5.45-4.65l1.78-.43a3.928 3.928 0 0 0 3.67 3.22h19.88v1.86zM4.07 28.82l-1.78-.43a5.747 5.747 0 0 1 5.45-4.66h19.88v1.87H7.74a3.917 3.917 0 0 0-3.67 3.22zM31.4 39.16h-3.78a.92.92 0 0 1-.91-.94V23.21a.911.911 0 0 1 .91-.93h3.78a.92.92 0 0 1 .92.93v15.01a.928.928 0 0 1-.92.94zm-2.87-1.87h1.96V24.14h-1.96v13.15z" fill="#2e3192"></path></svg>