<svg xmlns="http://www.w3.org/2000/svg" xmlns:xlink="http://www.w3.org/1999/xlink" viewBox="0 0 72 72"><path d="M66.194 18.58H62.71V0H9.29v18.58H5.806A5.817 5.817 0 0 0 0 24.39v34.84a5.809 5.809 0 0 0 5.806 5.8H21.98a10.315 10.315 0 0 1-1.653 4.58l-.045.07h-4.024V72h39.484v-2.32h-4.024l-.045-.07a10.327 10.327 0 0 1-1.653-4.58h16.174A5.809 5.809 0 0 0 72 59.23V24.39a5.817 5.817 0 0 0-5.806-5.81zM60.387 2.32v6.97H11.613V2.32h48.774zM5.806 20.9H9.29v32.52h53.42V25.55h-2.323V51.1H11.613V11.61h48.774v11.62h2.323V20.9h3.484a3.494 3.494 0 0 1 3.483 3.49v31.35H2.323V24.39a3.494 3.494 0 0 1 3.483-3.49zm43.225 48.78H22.969a12.606 12.606 0 0 0 1.359-4.65h23.344a12.625 12.625 0 0 0 1.359 4.65zm17.163-6.97H5.806a3.485 3.485 0 0 1-3.483-3.48v-1.17h67.354v1.17a3.485 3.485 0 0 1-3.483 3.48zM13.935 44.13h25.549V18.58H13.935v25.55zm2.323-23.23h20.9v20.91h-20.9V20.9zm4.645 16.98l13.049-6.53-13.049-6.52v13.05zm2.323-9.29l5.532 2.76-5.532 2.77v-5.53zm18.58 1.6h16.259V13.94H41.806v16.25zm2.323-13.93h11.613v11.61H44.129V16.26zm-2.323 32.51h16.259V32.52H41.806v16.25zm2.323-13.93h11.613v11.61H44.129V34.84zM13.935 4.65h2.323v2.32h-2.323V4.65zm4.646 0H20.9v2.32h-2.322V4.65zm4.645 0h2.322v2.32h-2.322V4.65z" fill="currentColor" fill-rule="evenodd"></path></svg>