<svg xmlns="http://www.w3.org/2000/svg" xmlns:xlink="http://www.w3.org/1999/xlink" viewBox="0 0 77 77"><path d="M42.226 21.11h2.484v24.84h-2.484V21.11zM16.145 69.55h12.42v2.48h-12.42v-2.48zM77 12.42a12.42 12.42 0 1 0-24.27 3.73h-8.02V6.21A6.22 6.22 0 0 0 38.5 0H6.21A6.22 6.22 0 0 0 0 6.21v64.58A6.22 6.22 0 0 0 6.21 77H38.5a6.22 6.22 0 0 0 6.21-6.21V60.72a6.219 6.219 0 0 0 4.842-4.83h20v-32.1A12.426 12.426 0 0 0 77 12.42zm-54.645 3.73v4.96h-4.968v34.78h20a6.224 6.224 0 0 0 4.843 4.83v3.86H2.484v-53.4h39.742v4.97H22.355zM6.21 2.48H38.5a3.737 3.737 0 0 1 3.726 3.73v2.48H2.484V6.21A3.737 3.737 0 0 1 6.21 2.48zM38.5 74.52H6.21a3.73 3.73 0 0 1-3.726-3.73v-3.73h39.742v3.73a3.73 3.73 0 0 1-3.726 3.73zM67.06 53.4H47.194v1.24a3.726 3.726 0 1 1-7.452 0V53.4H19.871V23.6h2.484v27.32H64.58V29.81H62.1v18.63H24.839V18.63h29a12.442 12.442 0 0 0 8.26 5.96v2.73h2.48v-2.48a12.641 12.641 0 0 0 2.48-.25V53.4zm-2.48-31.05a9.94 9.94 0 0 1-9.19-6.17v-.03h-.01a9.934 9.934 0 1 1 9.2 6.2zM59.61 5.44V19.4l13.96-6.98zm2.49 4.02l5.91 2.96-5.91 2.96V9.46zM47.194 24.84h9.936v2.48h-9.936v-2.48zm0 4.97h9.936v2.48h-9.936v-2.48zm0 4.96h9.936v2.49h-9.936v-2.49zm0 4.97h9.936v2.49h-9.936v-2.49zm-17.388-14.9h9.936v2.48h-9.936v-2.48zm0 4.97h9.936v2.48h-9.936v-2.48zm0 4.96h9.936v2.49h-9.936v-2.49zm0 4.97h9.936v2.49h-9.936v-2.49zM4.968 18.63h2.484v29.81H4.968V18.63zm0-4.97h2.484v2.49H4.968v-2.49z" fill="currentColor" fill-rule="evenodd"></path></svg>