<svg xmlns="http://www.w3.org/2000/svg" xmlns:xlink="http://www.w3.org/1999/xlink" viewBox="0 0 512 512"><path d="M153.805 414.102c-2.996 0-5.993-.766-8.668-2.313-5.387-3.09-8.602-8.625-8.602-14.805V268.617c0-6.168 3.207-11.699 8.59-14.797 5.379-3.097 12.05-3.07 17.418.028l110.516 64.175c5.351 3.11 8.543 8.645 8.543 14.782 0 6.152-3.204 11.664-8.543 14.773l-110.516 64.176a17.375 17.375 0 0 1-8.738 2.348zm.164-145.493l-.367 128.375v.036l110.878-64.2zm0 0"></path><path d="M365.297 486.898H27.238C12.218 486.898 0 474.68 0 459.672V206.93c0-15.012 12.219-27.23 27.238-27.23h338.059c15.015 0 27.238 12.218 27.238 27.23v252.73c0 15.02-12.222 27.238-27.238 27.238zM27.238 196.766c-5.605 0-10.172 4.558-10.172 10.164v252.73c0 5.617 4.567 10.172 10.172 10.172h338.059c5.605 0 10.168-4.555 10.168-10.16V206.93c0-5.606-4.563-10.164-10.168-10.164zm0 0"></path><path d="M492.363 469.832c-3.02 0-6.039-.707-8.855-2.14l-.488-.266-107.555-63.957v-140.34l107.566-63.957c6.559-3.379 13.66-3.098 19.496.48 5.93 3.633 9.473 9.993 9.473 16.996V449.95c0 7.008-3.543 13.364-9.473 17-3.14 1.918-6.648 2.883-10.164 2.883zm-.93-17.262a2.261 2.261 0 0 0 2.176-.18c.496-.296 1.325-1.015 1.325-2.44V216.647c0-1.425-.829-2.14-1.325-2.441-.527-.332-1.355-.594-2.336-.102l-98.738 58.727v120.934zM93.867 196.766c-42.351 0-76.8-34.45-76.8-76.801 0-42.348 34.449-76.797 76.8-76.797 42.352 0 76.801 34.45 76.801 76.797 0 42.351-34.45 76.8-76.8 76.8zm0-136.532c-32.937 0-59.734 26.801-59.734 59.73 0 32.934 26.797 59.735 59.734 59.735s59.735-26.8 59.735-59.734c0-32.93-26.797-59.73-59.735-59.73zm0 0"></path><path d="M251.734 196.766c-54.109 0-98.132-44.024-98.132-98.133C153.602 44.523 197.625.5 251.734.5s98.133 44.023 98.133 98.133c0 54.11-44.023 98.133-98.133 98.133zm0-179.2c-44.699 0-81.066 36.371-81.066 81.067 0 44.699 36.367 81.066 81.066 81.066 44.696 0 81.067-36.367 81.067-81.066 0-44.695-36.371-81.067-81.067-81.067zm0 0"></path><path d="M251.734 162.633c-35.285 0-64-28.707-64-64s28.715-64 64-64c4.711 0 8.532 3.816 8.532 8.535s-3.82 8.531-8.532 8.531c-25.882 0-46.933 21.063-46.933 46.934 0 25.875 21.05 46.933 46.933 46.933 25.88 0 46.934-21.058 46.934-46.933a8.527 8.527 0 0 1 8.531-8.531 8.53 8.53 0 0 1 8.535 8.53c0 35.294-28.707 64-64 64zm-157.867 0c-23.527 0-42.668-19.14-42.668-42.668 0-4.719 3.824-8.531 8.535-8.531s8.532 3.812 8.532 8.53c0 14.118 11.488 25.602 25.601 25.602s25.598-11.484 25.598-25.601c0-14.113-11.485-25.598-25.598-25.598-4.71 0-8.535-3.816-8.535-8.535s3.824-8.531 8.535-8.531c23.528 0 42.668 19.14 42.668 42.664 0 23.527-19.14 42.668-42.668 42.668zm0 0"></path></svg>