<svg xmlns="http://www.w3.org/2000/svg" xmlns:xlink="http://www.w3.org/1999/xlink" viewBox="0 0 61 70"><path d="M59.849 70H21.868a8.12 8.12 0 0 1-8.057-8.17V8.17a5.8 5.8 0 0 0-5.754-5.84 1.165 1.165 0 0 1 0-2.33h44.886A8.12 8.12 0 0 1 61 8.17v60.66A1.157 1.157 0 0 1 59.849 70zM13.69 2.33a8.215 8.215 0 0 1 2.423 5.84v53.66a5.8 5.8 0 0 0 5.755 5.84H58.7V8.17a5.8 5.8 0 0 0-5.755-5.84H13.69zm1.272 14H1.151A1.155 1.155 0 0 1 0 15.17v-7A8.12 8.12 0 0 1 8.057 0h14.962a1.165 1.165 0 0 1 0 2.33H8.057a5.8 5.8 0 0 0-5.755 5.84V14h12.66a1.165 1.165 0 0 1 0 2.33zm40.283 49H26.472a8.118 8.118 0 0 1-8.057-8.16V5.83a1.156 1.156 0 0 1 1.151-1.16H48.34a8.118 8.118 0 0 1 8.056 8.16v51.34a1.155 1.155 0 0 1-1.151 1.16zM20.717 7v50.17A5.8 5.8 0 0 0 26.472 63h27.622V12.83A5.8 5.8 0 0 0 48.34 7H20.717zM36.83 52.5a8.166 8.166 0 1 1 8.057-8.17 8.12 8.12 0 0 1-8.057 8.17zm0-14a5.836 5.836 0 1 0 5.755 5.83 5.8 5.8 0 0 0-5.755-5.83zm4.6 18.67A1.158 1.158 0 0 1 40.279 56a3.453 3.453 0 1 0-6.906 0 1.151 1.151 0 1 1-2.3 0 5.755 5.755 0 1 1 11.51 0 1.158 1.158 0 0 1-1.149 1.17zm-4.6-10.5a2.314 2.314 0 0 1-1.623-.68 2.358 2.358 0 0 1-.011-3.3 2.315 2.315 0 0 1 3.257 3.29 2.265 2.265 0 0 1-1.623.69zm3.453-35h-5.755a1.17 1.17 0 0 1 0-2.34h5.755a1.17 1.17 0 0 1 0 2.34zm10.358 7H24.17a1.17 1.17 0 0 1 0-2.34h26.471a1.17 1.17 0 0 1 0 2.34zm0 4.66H24.17a1.165 1.165 0 0 1 0-2.33h26.471a1.165 1.165 0 0 1 0 2.33zm-4.6 4.67H28.774a1.165 1.165 0 0 1 0-2.33h17.264a1.165 1.165 0 0 1 0 2.33zm4.6 5.83h-6.9a1.165 1.165 0 0 1 0-2.33h6.9a1.165 1.165 0 0 1 0 2.33z" fill="currentColor" fill-rule="evenodd"></path></svg>